<?xml version="1.0" encoding="UTF-8"?><svg xmlns="http://www.w3.org/2000/svg" viewBox="0 0 716.36 150.97"><defs><style>.f{fill:#231f20;}</style></defs><g id="a"/><g id="b"><g id="c"><g id="d"><g id="e"><g><g><path class="f" d="M53.79,76.47c-2.02,.88-3.93,1.71-5.73,2.5-1.8,.79-3.67,1.45-5.59,1.97-1.49,.35-2.94,.64-4.34,.86-1.4,.22-2.81,.33-4.21,.33-2.02,0-4.04-.26-6.05-.79-2.55-.7-4.89-1.84-7.04-3.42-2.15-1.58-3.95-3.47-5.4-5.66-1.45-2.19-2.48-4.58-3.09-7.17-.61-2.59-.75-5.2-.4-7.83,.79-4.74,2.41-9.3,4.87-13.69,2.46-4.39,5.4-8.49,8.82-12.31,3.42-3.82,7.13-7.3,11.12-10.46,3.99-3.16,7.96-5.92,11.91-8.29,6.4-3.77,13.23-6.8,20.47-9.08,7.24-2.28,14.59-3.42,22.05-3.42,8.25,0,15.49,1.78,21.72,5.33,6.23,3.55,11.32,9.02,15.27,16.39,3.95,7.37,6.27,14.87,6.98,22.51,.7,7.63,.09,15.45-1.84,23.43-.18,.7-.37,1.34-.59,1.91-.22,.57-.29,1.21-.2,1.91,.44,.35,.88,.51,1.32,.46,.44-.04,.88-.07,1.32-.07,3.33-.09,6.71-.13,10.13-.13s6.8,.09,10.13,.26c1.4,.09,3.11,.24,5.13,.46,2.02,.22,3.69,.59,5,1.12,.7,.26,.92,.79,.66,1.58-.18,.44-.37,.61-.59,.53-.22-.09-.46-.17-.72-.26-3.34-.53-6.67-.92-10-1.18-3.34-.26-6.67-.31-10-.13-2.02,.18-4.04,.33-6.05,.46-2.02,.13-4.04,.29-6.05,.46-1.23,.09-2.11,.75-2.63,1.97-3.25,7.99-7.85,15.53-13.82,22.64-5.97,7.11-12.68,13.62-20.14,19.55-7.46,5.92-15.33,11.17-23.63,15.73-8.29,4.56-16.39,8.25-24.28,11.06-4.21,1.49-8.47,2.7-12.77,3.62-4.3,.92-8.69,1.38-13.16,1.38-4.48-.18-8.54-1.05-12.18-2.63-3.64-1.58-6.6-4.43-8.88-8.56-.96-1.76-1.38-3.49-1.25-5.2,.13-1.71,.55-3.44,1.25-5.2,1.58-4.3,4.15-8.34,7.7-12.11,3.55-3.77,7.59-7.24,12.11-10.4,4.52-3.16,9.21-6.01,14.08-8.56,4.87-2.54,9.41-4.65,13.62-6.32,1.4-.53,2.24-1.53,2.5-3.03,.35-2.02,.74-4.04,1.18-6.05,.44-2.02,.88-4.17,1.32-6.45Zm66.47,.26c-1.67,0-3.22,.13-4.67,.39-1.45,.26-2.92,.48-4.41,.66-16.5,2.55-32.42,6.54-47.78,11.98-.97,.44-1.71,.94-2.24,1.51-.53,.57-.83,1.38-.92,2.44-.35,3.95-1.05,7.77-2.11,11.45-1.05,3.68-1.93,7.5-2.63,11.45-.09,1.05-.7,1.32-1.84,.79-.97-.44-1.67-1.01-2.11-1.71-.44-.7-.75-1.54-.92-2.5-.26-2.46-.48-4.87-.66-7.24-.18-2.37-.18-4.78,0-7.24,.09-.44,.17-.92,.26-1.45,.09-.53,0-1.01-.26-1.45h-.13l-.26-.13c-.7,.18-1.27,.35-1.71,.53-3.69,1.67-7.48,3.55-11.39,5.66-3.91,2.11-7.7,4.43-11.39,6.98-3.69,2.54-7.11,5.33-10.27,8.36-3.16,3.03-5.79,6.29-7.9,9.81-1.05,1.67-1.91,3.38-2.57,5.13-.66,1.75-.99,3.64-.99,5.66,0,1.75,.26,2.96,.79,3.62s1.62,1.21,3.29,1.64c2.19,.61,4.52,.92,6.98,.92,4.74,0,9.96-.83,15.66-2.5,5.7-1.67,11.43-3.75,17.18-6.25,5.75-2.5,11.25-5.22,16.52-8.16,5.27-2.94,9.83-5.68,13.69-8.23,4.12-2.72,8.2-5.62,12.24-8.69,4.04-3.07,7.9-6.36,11.58-9.87,3.69-3.51,7.15-7.24,10.4-11.19,3.25-3.95,6.1-8.07,8.56-12.37Zm-58.31,9.61c.53,.26,1.01,.29,1.45,.07,.44-.22,.88-.42,1.32-.59,.44-.17,.88-.31,1.32-.4,.44-.09,.88-.22,1.32-.39l5.4-1.71c7.11-2.19,14.28-4.01,21.52-5.46,7.24-1.45,14.59-2.61,22.05-3.49,2.37-.17,4.19-.79,5.46-1.84,1.27-1.05,2.35-2.63,3.23-4.74,2.37-6.23,3.95-12.48,4.74-18.76,.79-6.27,.48-12.7-.92-19.28-.88-4.12-2.52-7.72-4.94-10.79-2.41-3.07-5.24-5.64-8.49-7.7-3.25-2.06-6.82-3.6-10.73-4.61-3.91-1.01-7.83-1.51-11.78-1.51-5.71,0-11.34,.7-16.91,2.11-5.57,1.4-10.97,3.31-16.19,5.73-5.22,2.41-10.2,5.31-14.94,8.69-4.74,3.38-9.08,7.04-13.03,10.99-3.34,3.34-6.3,6.91-8.88,10.73-2.59,3.82-4.63,8.01-6.12,12.57-1.32,3.6-1.76,7.37-1.32,11.32,.44,2.98,1.93,4.96,4.48,5.92,3.69,1.67,7.63,2.28,11.85,1.84,3.95-.44,7.74-1.25,11.39-2.44,3.64-1.18,7.17-2.74,10.6-4.67,.96-.53,1.71-1.14,2.24-1.84,.53-.7,.96-1.58,1.32-2.63,.61-2.28,1.45-5.11,2.5-8.49,1.05-3.38,2.19-6.82,3.42-10.33,1.23-3.51,2.57-6.86,4.01-10.07,1.45-3.2,2.87-5.77,4.28-7.7,.79-1.23,1.75-1.27,2.9-.13,.53,.53,.79,1.05,.79,1.58s-.09,1.14-.26,1.84c-1.14,3.95-2.24,7.85-3.29,11.71-1.05,3.86-2.11,7.77-3.16,11.71-.18,.53-.33,1.08-.46,1.64-.13,.57-.11,1.3,.07,2.17,3.95-3.95,7.48-8.01,10.6-12.17,3.11-4.17,5.51-8.88,7.17-14.15,.44,.53,.66,1.05,.66,1.58v1.45c-.26,2.72-1.08,5.59-2.44,8.62-1.36,3.03-3.01,6.01-4.94,8.95-1.93,2.94-3.99,5.71-6.19,8.29-2.19,2.59-4.21,4.76-6.05,6.52-1.4,1.14-2.24,2.59-2.5,4.34-.44,2.28-.86,4.52-1.25,6.71-.39,2.19-.81,4.39-1.25,6.58-.09,.44-.18,.81-.26,1.12-.09,.31,0,.68,.26,1.12Z"/><path class="f" d="M198.18,79.89c1.49-1.49,2.79-2.96,3.88-4.41,1.1-1.45,2.26-2.92,3.49-4.41,.7-.7,1.34-1.45,1.91-2.24,.57-.79,1.29-1.49,2.17-2.11,.26-.17,.57-.35,.92-.53,.35-.17,.7-.09,1.05,.26,.53,.53,.53,1.14,0,1.84-.44,.7-.83,1.36-1.18,1.97-.35,.61-.75,1.27-1.18,1.97-1.14,1.49-2.26,2.96-3.36,4.41-1.1,1.45-2.22,2.92-3.36,4.41-.97,1.23-1.45,2.04-1.45,2.43s.57,1.16,1.71,2.3c.79,.88,1.6,1.69,2.44,2.43,.83,.75,1.69,1.56,2.57,2.44-.7,.44-1.3,.55-1.78,.33-.48-.22-.94-.46-1.38-.72-.79-.53-1.58-1.03-2.37-1.51-.79-.48-1.54-1.07-2.24-1.78-.62-.53-1.12-.79-1.51-.79s-.86,.31-1.38,.92c-1.32,1.4-2.68,2.7-4.08,3.88-1.41,1.18-2.85,2.35-4.34,3.49-.97,.7-1.95,1.34-2.96,1.91-1.01,.57-2.04,1.08-3.09,1.51-2.55,1.14-5.31,1.36-8.29,.66-2.63-.61-3.95-2.24-3.95-4.87-.09-1.4,.09-2.74,.53-4.01,.44-1.27,1.01-2.52,1.71-3.75,1.49-2.81,3.27-5.42,5.33-7.83,2.06-2.41,4.23-4.76,6.52-7.04,.44-.35,.81-.7,1.12-1.05,.31-.35,.68-.66,1.12-.92,1.23-.96,1.67-2.32,1.32-4.08-.44-2.81-.66-5.57-.66-8.29s.31-5.48,.92-8.29c.44-1.75,.96-3.42,1.58-5,.61-1.58,1.45-3.11,2.5-4.61,1.84-2.54,4.08-4.15,6.71-4.8,2.63-.66,5.35-.24,8.16,1.25,2.72,1.4,4.3,3.77,4.74,7.11,.44,2.81,.2,5.44-.72,7.9-.92,2.46-2.26,4.78-4.01,6.98-1.67,2.11-3.47,4.08-5.4,5.92-1.93,1.84-3.91,3.69-5.92,5.53l-1.25,1.25c-.31,.31-.48,.61-.53,.92-.04,.31,0,.68,.13,1.12,.13,.44,.33,1.01,.59,1.71,.35,1.05,.88,2.15,1.58,3.29,.17,.44,.39,.88,.66,1.32,.26,.44,.61,.97,1.05,1.58Zm-7.77-5.66c-1.32,1.14-2.66,2.48-4.01,4.01-1.36,1.54-2.63,3.14-3.82,4.8-1.19,1.67-2.28,3.31-3.29,4.94-1.01,1.62-1.82,3.14-2.44,4.54-.18,.44-.37,.92-.59,1.45-.22,.53-.33,1.05-.33,1.58,0,1.49,.7,2.02,2.11,1.58,.35-.09,.66-.2,.92-.33s.57-.28,.92-.46c2.98-1.49,5.66-3.36,8.03-5.59s4.69-4.54,6.98-6.91c.53-.7,.57-1.4,.13-2.11-.97-1.14-1.8-2.3-2.5-3.49-.7-1.18-1.41-2.52-2.11-4.01Zm2.37-10.92c1.67-1.49,3.27-2.96,4.8-4.41,1.53-1.45,3-2.96,4.41-4.54,2.02-2.28,3.46-4.74,4.34-7.37,.53-1.23,.88-2.48,1.05-3.75,.17-1.27,.04-2.57-.4-3.88-1.05-4.21-3.51-5.18-7.37-2.9-1.49,.97-2.68,2.11-3.55,3.42-.88,1.32-1.67,2.72-2.37,4.21-1.05,2.81-1.73,5.64-2.04,8.49-.31,2.85-.29,5.73,.07,8.62,.09,.35,.15,.72,.2,1.12,.04,.4,.33,.72,.86,.99Z"/><path class="f" d="M270.04,76.47c-2.02,.88-3.93,1.71-5.73,2.5-1.8,.79-3.67,1.45-5.59,1.97-1.49,.35-2.94,.64-4.34,.86-1.4,.22-2.81,.33-4.21,.33-2.02,0-4.04-.26-6.05-.79-2.55-.7-4.89-1.84-7.04-3.42-2.15-1.58-3.95-3.47-5.4-5.66-1.45-2.19-2.48-4.58-3.09-7.17-.62-2.59-.75-5.2-.39-7.83,.79-4.74,2.41-9.3,4.87-13.69,2.46-4.39,5.4-8.49,8.82-12.31,3.42-3.82,7.13-7.3,11.12-10.46,3.99-3.16,7.96-5.92,11.91-8.29,6.4-3.77,13.23-6.8,20.47-9.08,7.24-2.28,14.59-3.42,22.05-3.42,8.25,0,15.49,1.78,21.72,5.33,6.23,3.55,11.32,9.02,15.27,16.39,3.95,7.37,6.27,14.87,6.98,22.51,.7,7.63,.09,15.45-1.84,23.43-.18,.7-.37,1.34-.59,1.91-.22,.57-.29,1.21-.2,1.91,.44,.35,.88,.51,1.32,.46,.44-.04,.88-.07,1.32-.07,3.33-.09,6.71-.13,10.14-.13s6.8,.09,10.13,.26c1.4,.09,3.11,.24,5.13,.46,2.02,.22,3.69,.59,5,1.12,.7,.26,.92,.79,.66,1.58-.18,.44-.38,.61-.59,.53-.22-.09-.46-.17-.72-.26-3.34-.53-6.67-.92-10-1.18-3.34-.26-6.67-.31-10-.13-2.02,.18-4.04,.33-6.05,.46-2.02,.13-4.04,.29-6.05,.46-1.23,.09-2.11,.75-2.63,1.97-3.25,7.99-7.85,15.53-13.82,22.64-5.97,7.11-12.68,13.62-20.14,19.55-7.46,5.92-15.33,11.17-23.63,15.73-8.29,4.56-16.39,8.25-24.28,11.06-4.21,1.49-8.47,2.7-12.77,3.62-4.3,.92-8.69,1.38-13.16,1.38-4.47-.18-8.53-1.05-12.17-2.63-3.64-1.58-6.6-4.43-8.88-8.56-.96-1.76-1.38-3.49-1.25-5.2s.55-3.44,1.25-5.2c1.58-4.3,4.15-8.34,7.7-12.11,3.55-3.77,7.59-7.24,12.11-10.4,4.52-3.16,9.21-6.01,14.08-8.56,4.87-2.54,9.41-4.65,13.62-6.32,1.4-.53,2.24-1.53,2.5-3.03,.35-2.02,.74-4.04,1.18-6.05,.44-2.02,.88-4.17,1.32-6.45Zm66.47,.26c-1.67,0-3.22,.13-4.67,.39-1.45,.26-2.92,.48-4.41,.66-16.5,2.55-32.42,6.54-47.78,11.98-.97,.44-1.71,.94-2.24,1.51-.53,.57-.83,1.38-.92,2.44-.35,3.95-1.05,7.77-2.11,11.45-1.05,3.68-1.93,7.5-2.63,11.45-.09,1.05-.7,1.32-1.84,.79-.97-.44-1.67-1.01-2.11-1.71-.44-.7-.75-1.54-.92-2.5-.26-2.46-.48-4.87-.66-7.24-.18-2.37-.18-4.78,0-7.24,.09-.44,.17-.92,.26-1.45,.09-.53,0-1.01-.26-1.45h-.13l-.26-.13c-.7,.18-1.27,.35-1.71,.53-3.69,1.67-7.48,3.55-11.39,5.66-3.91,2.11-7.7,4.43-11.38,6.98s-7.11,5.33-10.27,8.36-5.79,6.29-7.9,9.81c-1.05,1.67-1.91,3.38-2.57,5.13-.66,1.75-.99,3.64-.99,5.66,0,1.75,.26,2.96,.79,3.62,.53,.66,1.62,1.21,3.29,1.64,2.19,.61,4.52,.92,6.98,.92,4.74,0,9.96-.83,15.66-2.5,5.7-1.67,11.43-3.75,17.18-6.25,5.75-2.5,11.25-5.22,16.52-8.16,5.26-2.94,9.83-5.68,13.69-8.23,4.12-2.72,8.2-5.62,12.24-8.69,4.04-3.07,7.9-6.36,11.58-9.87,3.69-3.51,7.15-7.24,10.4-11.19,3.25-3.95,6.1-8.07,8.56-12.37Zm-58.31,9.61c.53,.26,1.01,.29,1.45,.07,.44-.22,.88-.42,1.32-.59,.44-.17,.88-.31,1.32-.4,.44-.09,.88-.22,1.32-.39l5.4-1.71c7.11-2.19,14.28-4.01,21.52-5.46,7.24-1.45,14.59-2.61,22.05-3.49,2.37-.17,4.19-.79,5.46-1.84,1.27-1.05,2.35-2.63,3.22-4.74,2.37-6.23,3.95-12.48,4.74-18.76,.79-6.27,.48-12.7-.92-19.28-.88-4.12-2.52-7.72-4.94-10.79-2.42-3.07-5.25-5.64-8.49-7.7-3.25-2.06-6.82-3.6-10.73-4.61-3.91-1.01-7.83-1.51-11.78-1.51-5.71,0-11.34,.7-16.91,2.11-5.57,1.4-10.97,3.31-16.19,5.73-5.22,2.41-10.2,5.31-14.94,8.69-4.74,3.38-9.08,7.04-13.03,10.99-3.34,3.34-6.3,6.91-8.88,10.73-2.59,3.82-4.63,8.01-6.12,12.57-1.32,3.6-1.76,7.37-1.32,11.32,.44,2.98,1.93,4.96,4.47,5.92,3.69,1.67,7.63,2.28,11.85,1.84,3.95-.44,7.74-1.25,11.38-2.44,3.64-1.18,7.17-2.74,10.6-4.67,.96-.53,1.71-1.14,2.24-1.84,.53-.7,.96-1.58,1.32-2.63,.61-2.28,1.45-5.11,2.5-8.49,1.05-3.38,2.19-6.82,3.42-10.33,1.23-3.51,2.57-6.86,4.01-10.07,1.45-3.2,2.87-5.77,4.28-7.7,.79-1.23,1.75-1.27,2.9-.13,.53,.53,.79,1.05,.79,1.58s-.09,1.14-.26,1.84c-1.14,3.95-2.24,7.85-3.29,11.71-1.05,3.86-2.11,7.77-3.16,11.71-.18,.53-.33,1.08-.46,1.64-.13,.57-.11,1.3,.07,2.17,3.95-3.95,7.48-8.01,10.6-12.17,3.11-4.17,5.5-8.88,7.17-14.15,.44,.53,.66,1.05,.66,1.58v1.45c-.26,2.72-1.08,5.59-2.43,8.62-1.36,3.03-3.01,6.01-4.94,8.95-1.93,2.94-3.99,5.71-6.19,8.29-2.19,2.59-4.21,4.76-6.05,6.52-1.4,1.14-2.24,2.59-2.5,4.34-.44,2.28-.86,4.52-1.25,6.71-.4,2.19-.81,4.39-1.25,6.58-.09,.44-.18,.81-.26,1.12-.09,.31,0,.68,.26,1.12Z"/><path class="f" d="M419.17,73.84c.44,.09,.88,.13,1.32,.13,.7,0,1.4-.13,2.11-.4,.7-.26,1.4-.61,2.11-1.05,2.28-1.49,4.34-3.14,6.19-4.94,1.84-1.8,3.42-3.88,4.74-6.25,.44-.7,.81-1.38,1.12-2.04,.31-.66,.46-1.16,.46-1.51,0-.44-.18-.83-.53-1.18-.26-.26-.62-.39-1.05-.39-.62,0-1.25,.2-1.91,.59-.66,.39-1.25,.77-1.78,1.12-2.19,1.23-4.28,2.83-6.25,4.8-1.97,1.97-3.73,4.15-5.26,6.51-1.54,2.37-2.81,4.85-3.82,7.44-1.01,2.59-1.69,5.11-2.04,7.57-.09,.62-.13,1.27-.13,1.97,0,.26,.02,.72,.07,1.38,.04,.66,.2,1.47,.46,2.44,.53,1.4,1.53,2.11,3.03,2.11h.26c1.4-.17,2.76-.48,4.08-.92,1.32-.44,2.63-1.01,3.95-1.71,2.02-1.05,4.15-2.44,6.38-4.15,2.24-1.71,4.48-3.53,6.71-5.46,2.24-1.93,4.41-3.88,6.52-5.86,2.11-1.97,3.95-3.79,5.53-5.46,.44-.44,.81-.83,1.12-1.19,.31-.35,.59-.53,.86-.53s.57,.13,.92,.4c.26,.26,.39,.57,.39,.92,0,.26-.15,.59-.46,.99-.31,.39-.64,.81-.99,1.25-1.49,2.11-3.44,4.59-5.86,7.44-2.42,2.85-5.07,5.59-7.96,8.23-2.9,2.63-5.88,4.85-8.95,6.65-3.07,1.8-6.05,2.7-8.95,2.7-4.3,0-7.94-1.49-10.92-4.48-1.49-1.49-2.35-2.92-2.57-4.28-.22-1.36-.33-2.52-.33-3.49,0-.88,.05-1.75,.13-2.63,.88-5.09,2.61-9.63,5.2-13.62,2.59-3.99,5.86-7.52,9.81-10.6,1.23-.96,2.46-1.82,3.69-2.57,1.23-.75,2.59-1.25,4.08-1.51,.61-.17,1.27-.26,1.97-.26,1.4,0,3.03,.42,4.87,1.25,1.84,.83,3.25,2.13,4.21,3.88,.44,.61,.66,1.27,.66,1.97s-.22,1.41-.66,2.11c-1.76,3.34-3.95,6.17-6.58,8.49-2.63,2.33-5.79,4.1-9.48,5.33-.79,.26-1.67,.39-2.63,.39-.09,0-.44-.02-1.05-.07-.62-.04-1.54-.55-2.76-1.51Z"/><path class="f" d="M459.05,73.84c1.67-.26,3.18-.53,4.54-.79,1.36-.26,2.7-.48,4.01-.66,2.98-.53,5.7-.31,8.16,.66,.88,.44,1.67,.62,2.37,.53,.7-.09,1.45-.26,2.24-.53,6.84-2.63,14.08-3.6,21.72-2.9,.61,0,1.25,.07,1.91,.2s1.38,.51,2.17,1.12c-4.47-.17-8.78,.13-12.9,.92-4.13,.79-8.21,2.02-12.24,3.69,1.93,2.55,2.72,5.02,2.37,7.44-.35,2.42-1.1,4.8-2.24,7.17-2.19,4.47-4.87,8.47-8.03,11.98-3.16,3.51-6.98,6.41-11.45,8.69-2.55,1.4-5.2,2.41-7.96,3.03-2.76,.61-5.59,.79-8.49,.53-1.32-.18-2.57-.46-3.75-.86-1.18-.39-2.3-.9-3.36-1.51-2.54-1.4-3.25-3.42-2.11-6.05,.62-1.49,1.41-2.85,2.37-4.08,.97-1.23,2.02-2.41,3.16-3.55,4.21-4.3,8.69-8.25,13.43-11.85,4.74-3.6,9.78-6.8,15.14-9.61,.44-.17,.88-.37,1.32-.59,.44-.22,.83-.59,1.18-1.12-.53-.17-1.05-.2-1.58-.07s-1.01,.29-1.45,.46c-1.23,.35-2.43,.7-3.62,1.05-1.18,.35-2.39,.75-3.62,1.18-2.02,.79-3.86,.88-5.53,.26-1.67-.61-3.25-1.53-4.74-2.76-1.23-1.14-1.71-2.63-1.45-4.47,.53-2.81,1.58-5.57,3.16-8.29,2.19-3.6,4.82-6.93,7.9-10,.17-.17,.37-.35,.59-.53,.22-.17,.46-.35,.72-.53,4.91-4.04,9.52-3.64,13.82,1.18,1.32,1.49,1.8,3.2,1.45,5.13-.35,1.49-.86,2.85-1.51,4.08-.66,1.23-1.47,2.46-2.43,3.69-.53,.61-1.23,.7-2.11,.26-1.23-.7-2.06-1.69-2.5-2.96-.44-1.27-.39-2.65,.13-4.15,.17-.44,.42-.9,.72-1.38,.31-.48,.59-.99,.86-1.51,.26-.44,.55-.9,.86-1.38,.31-.48,.37-1.16,.2-2.04-3.51,2.72-6.21,5.88-8.09,9.48-1.89,3.6-3.67,7.42-5.33,11.45Zm17.11,4.61c-.44-.17-.81-.2-1.12-.07-.31,.13-.59,.29-.86,.46-5.09,2.55-9.94,5.42-14.54,8.62-4.61,3.2-8.97,6.78-13.1,10.73-1.05,1.05-2.04,2.15-2.96,3.29-.92,1.14-1.78,2.37-2.57,3.69-.35,.61-.66,1.25-.92,1.91-.26,.66-.4,1.34-.4,2.04,0,1.23,.2,2.02,.59,2.37,.39,.35,1.21,.44,2.43,.26,1.32-.18,2.59-.46,3.82-.86,1.23-.4,2.41-.9,3.55-1.51,5.79-3.07,10.73-6.82,14.81-11.25,4.08-4.43,7.48-9.54,10.2-15.33,.26-.7,.55-1.4,.86-2.11,.31-.7,.37-1.45,.2-2.24Z"/><path class="f" d="M509.59,75.81c-.79,2.55-1.38,4.96-1.78,7.24-.39,2.28-.77,4.56-1.12,6.84-.18,1.14-.35,2.28-.53,3.42-.18,1.14-.18,2.28,0,3.42,.17,.97-.26,1.54-1.32,1.71-1.76,.18-3.29-.15-4.61-.99-1.32-.83-2.24-2.08-2.76-3.75-.35-1.05-.53-2.13-.53-3.22s.09-2.22,.26-3.36c.26-3.33,.81-6.65,1.65-9.94,.83-3.29,1.78-6.56,2.83-9.81,3.33-10.44,7.06-20.66,11.19-30.67,.7-1.67,1.49-3.2,2.37-4.61,.17-.44,.44-.83,.79-1.18s.83-.44,1.45-.26c1.4,.44,2.15,1.27,2.24,2.5,0,.7-.05,1.36-.13,1.97-.09,.62-.22,1.27-.39,1.97-.62,2.28-1.21,4.61-1.78,6.98-.57,2.37-1.16,4.7-1.78,6.98-.09,.18-.13,.39-.13,.66s-.05,.53-.13,.79c.61,.09,1.07,0,1.38-.26,.31-.26,.59-.53,.86-.79,1.23-.96,2.44-1.84,3.62-2.63,1.18-.79,2.52-1.45,4.01-1.97,4.21-1.58,7.15,.04,8.82,4.87-1.58-1.32-2.96-1.69-4.15-1.12-1.18,.57-2.39,1.25-3.62,2.04-2.55,1.84-4.87,3.86-6.98,6.05-2.11,2.19-4.21,4.43-6.32,6.71-.7,.88-.79,1.84-.26,2.9,1.84,4.39,4.04,8.49,6.58,12.31,2.54,3.82,5.62,7.3,9.21,10.46,2.02,1.84,4.12,3.2,6.32,4.08,1.49,.44,2.57,.59,3.23,.46,.66-.13,1.47-.81,2.43-2.04,.7-.88,1.34-1.78,1.91-2.7,.57-.92,1.16-1.86,1.78-2.83,1.23-2.19,2.39-4.43,3.49-6.71,1.1-2.28,2.21-4.56,3.36-6.84,.26-.61,.57-1.21,.92-1.78,.35-.57,.74-1.21,1.18-1.91,.61-.96,1.36-1.18,2.24-.66,.44,.26,.64,.57,.59,.92-.05,.35-.15,.7-.33,1.05-1.49,2.81-2.74,5.64-3.75,8.49-1.01,2.85-2.26,5.64-3.75,8.36-2.81,5.18-7.2,8.51-13.16,10-3.42,.79-6.67,.18-9.74-1.84-3.07-2.02-5.68-4.43-7.83-7.24-2.15-2.81-4.01-5.83-5.59-9.08-.35-.79-.7-1.58-1.05-2.37-.35-.79-.75-1.67-1.18-2.63Z"/><path class="f" d="M576.19,85.82c-.62,.35-1.01,.75-1.18,1.18-.18,.44-.35,.88-.53,1.32-.97,1.76-2,3.44-3.09,5.07-1.1,1.62-2.35,3.18-3.75,4.67-1.23,1.32-2.76,2.17-4.61,2.57-1.84,.39-3.71,.42-5.59,.07-1.89-.35-3.62-1.05-5.2-2.11-1.58-1.05-2.68-2.28-3.29-3.69-1.23-2.81-1.89-5.64-1.97-8.49-.09-2.85,.22-5.68,.92-8.49,1.23-4.3,2.72-8.42,4.47-12.37,1.75-3.95,3.77-7.85,6.05-11.71,.53-.96,1.27-1.89,2.24-2.76,.79-.79,1.69-1.03,2.7-.72,1.01,.31,1.6,1.03,1.78,2.17,.17,.7,.24,1.41,.2,2.11-.04,.7-.15,1.4-.33,2.11-.88,5.26-1.76,10.46-2.63,15.6-.88,5.13-1.8,10.29-2.76,15.46-.26,1.49-.51,2.92-.72,4.28-.22,1.36-.24,2.79-.07,4.28,.09,.97,.28,1.56,.59,1.78,.31,.22,.9,.07,1.78-.46,.88-.53,1.69-1.12,2.43-1.78,.74-.66,1.47-1.34,2.17-2.04,2.19-2.46,4.06-5.09,5.59-7.9,1.53-2.81,3.05-5.66,4.54-8.56,1.75-3.6,3.49-7.19,5.2-10.79,1.71-3.6,3.57-7.15,5.59-10.66,.44-.79,.88-1.53,1.32-2.24,.44-.7,.96-1.4,1.58-2.11,.44-.44,.9-.81,1.38-1.12,.48-.31,1.07-.37,1.78-.2,1.49,.62,2.19,1.76,2.11,3.42-.09,.62-.13,1.21-.13,1.78s-.05,1.16-.13,1.78c-.97,5.27-1.89,10.44-2.76,15.53-.88,5.09-1.8,10.27-2.76,15.53-.18,.88-.33,1.73-.46,2.57-.13,.83-.24,1.69-.33,2.57-.09,.88-.11,1.71-.07,2.5,.04,.79,.33,1.58,.86,2.37,1.23-.35,2.28-.88,3.16-1.58,.88-.7,1.71-1.49,2.5-2.37,1.58-1.67,3.03-3.44,4.34-5.33,1.32-1.89,2.54-3.84,3.68-5.86,1.14-1.93,2.22-3.84,3.23-5.73,1.01-1.89,2.04-3.79,3.09-5.73,.35-.7,.7-1.34,1.05-1.91,.35-.57,.79-1.12,1.32-1.65,.44,.35,.64,.68,.59,.99-.04,.31-.15,.59-.33,.86-1.67,4.21-3.33,8.36-5,12.44-1.67,4.08-3.77,7.96-6.32,11.65-.18,.35-.39,.66-.66,.92-.26,.26-.48,.57-.66,.92-2.02,2.55-4.13,4.15-6.32,4.8-2.19,.66-5.13,.33-8.82-.99-2.11-.79-3.64-2-4.61-3.62-.97-1.62-1.71-3.44-2.24-5.46-.18-.79-.33-1.58-.46-2.37-.13-.79-.29-1.62-.46-2.5Zm-6.98-45.15c.09-.17,.15-.42,.2-.72,.04-.31,.15-.64,.33-.99,1.23-2.72,2.81-2.98,4.74-.79,.61,.7,1.16,1.43,1.64,2.17,.48,.75,.46,1.65-.07,2.7-.44,.79-1.05,1.4-1.84,1.84-.79,.44-1.54,.57-2.24,.39-.7-.26-1.32-.83-1.84-1.71-.53-.88-.83-1.84-.92-2.9Zm11.98,.53c-.09-1.23,.26-2.32,1.05-3.29,1.05-1.32,2.24-1.4,3.55-.26,.44,.44,.92,1.01,1.45,1.71,.44,.7,.77,1.41,.99,2.11,.22,.7-.02,1.4-.72,2.11-.44,.53-.94,.99-1.51,1.38-.57,.4-1.25,.51-2.04,.33-.7-.17-1.34-.7-1.91-1.58-.57-.88-.86-1.71-.86-2.5Z"/><path class="f" d="M630.41,73.31c-1.49,1.93-2.92,3.82-4.28,5.66-1.36,1.84-2.83,3.64-4.41,5.4-1.05,1.14-2.15,2.26-3.29,3.36-1.14,1.1-2.33,2.13-3.55,3.09-1.32,1.05-2.76,1.58-4.34,1.58-.97,0-1.89-.17-2.76-.53-.88-.35-1.8-.79-2.76-1.32-.7-.44-1.16-1.01-1.38-1.71-.22-.7-.42-1.45-.59-2.24-.17-1.05-.26-2.11-.26-3.16,0-.88,.09-2,.26-3.36,.18-1.36,.48-2.96,.92-4.8,1.14-6.32,1.71-12.15,1.71-17.51,0-2.02-.09-3.99-.26-5.92,1.49,.26,2.7,.99,3.62,2.17,.92,1.18,1.62,2.57,2.11,4.15,.48,1.58,.83,3.2,1.05,4.87,.22,1.67,.37,3.12,.46,4.34,.17,2.46,.26,4.96,.26,7.5s-.09,4.96-.26,7.5c-.09,.35-.18,.7-.26,1.05,0,.26,.22,.57,.66,.92,1.14-.88,2.13-1.86,2.96-2.96,.83-1.1,1.69-2.17,2.57-3.23,1.58-2.02,3.07-4.1,4.48-6.25,1.4-2.15,2.81-4.32,4.21-6.51,.79-1.4,1.23-2.85,1.32-4.34,.26-3.16,.83-6.23,1.71-9.21,.88-2.98,2.06-5.88,3.55-8.69,.79-1.4,1.4-2.21,1.84-2.44,.44-.22,.83-.33,1.18-.33s.79,.09,1.32,.26c2.54,.7,3.82,2.24,3.82,4.61v.66c-.09,1.32-.31,2.61-.66,3.88-.35,1.27-.75,2.52-1.18,3.75-.88,2.28-1.8,4.52-2.76,6.71-.97,2.19-2.06,4.34-3.29,6.45-.53,.97-.79,1.93-.79,2.9,0,.53,.09,1.1,.26,1.71,1.67,5.62,4.48,8.42,8.42,8.42,2.28,0,4.74-.68,7.37-2.04,2.63-1.36,4.87-2.65,6.71-3.88,1.93-1.14,3.9-2.37,5.92-3.69,.35,.18,.53,.35,.53,.53,0,.09-.04,.18-.13,.26-1.05,1.32-2.28,2.61-3.69,3.88-1.4,1.27-2.92,2.41-4.54,3.42-1.62,1.01-3.31,1.82-5.07,2.43-1.76,.62-3.51,.92-5.26,.92-2.28,0-4.34-.53-6.19-1.58-1.84-1.05-3.55-2.46-5.13-4.21-.35-.44-.66-.86-.92-1.25-.26-.39-.66-.81-1.18-1.25Z"/><path class="f" d="M685.96,83.18c7.81-.53,14.74-3.16,20.8-7.9,.96-.79,1.93-1.64,2.9-2.57,.96-.92,1.93-1.86,2.9-2.83l.26-.26,.53-.66c.09-.09,.17-.17,.26-.26,.35-.35,.66-.59,.92-.72,.26-.13,.48-.2,.66-.2,.26,0,.53,.13,.79,.39s.4,.53,.4,.79c0,.09-.02,.24-.07,.46-.04,.22-.15,.51-.33,.86-1.05,2.28-2.41,4.26-4.08,5.92-2.98,2.98-6.67,5.31-11.06,6.98-4.3,1.67-8.64,2.5-13.03,2.5h-1.71c-1.76,0-3.16,.66-4.21,1.97-1.58,1.84-3.29,3.44-5.13,4.8-1.84,1.36-3.99,2.26-6.45,2.7-1.05,.18-2.11,.26-3.16,.26-1.14,0-2.48-.17-4.01-.53-1.54-.35-3.09-1.16-4.67-2.44-1.58-1.27-2.83-2.83-3.75-4.67-.92-1.84-1.38-3.9-1.38-6.19,0-1.14,.07-2.26,.2-3.36,.13-1.1,.42-2.13,.86-3.09,.53-1.67,.94-3.31,1.25-4.94,.31-1.62,.64-3.27,.99-4.94,1.05-5.09,3.16-9.3,6.32-12.64,3.16-3.33,7.15-5.83,11.98-7.5,1.14-.44,2.32-.66,3.55-.66,.35,0,1.01,.04,1.97,.13,.96,.09,2.24,.42,3.82,.99,1.58,.57,3.05,1.32,4.41,2.24,1.36,.92,2.48,2,3.36,3.22,1.23,1.76,1.91,3.31,2.04,4.67,.13,1.36,.2,2.35,.2,2.96,0,1.4-.13,2.76-.39,4.08-1.05,5.97-3.2,11.67-6.45,17.11-.26,.44-.55,.92-.86,1.45-.31,.53-.51,1.14-.59,1.84Zm-24.09-3.55v7.5c0,.97,.31,2.15,.92,3.55,.35,.7,.83,1.05,1.45,1.05,.17,0,.4-.04,.66-.13,1.84-.7,3.51-1.62,5-2.76,1.49-1.14,2.9-2.59,4.21-4.34-2.28-.53-4.39-1.18-6.32-1.97-1.93-.79-3.91-1.75-5.92-2.9Zm25.4-23.96v-.72c0-.31-.04-.68-.13-1.12-.26-1.49-.57-2.72-.92-3.69-.35-.96-.81-1.67-1.38-2.11-.57-.44-1.25-.66-2.04-.66-.18,0-.55,.02-1.12,.07-.57,.05-1.69,.33-3.36,.86-3.69,1.23-6.69,3.12-9.02,5.66-2.33,2.55-4.28,5.48-5.86,8.82-.18,.35-.31,.75-.4,1.18,0,.26,.17,.48,.53,.66,.88,.44,1.32,.97,1.32,1.58,0,.09-.04,.31-.13,.66-.09,.35-.22,.92-.4,1.71-.26,.88-.48,1.76-.66,2.63-.18,.88-.44,1.8-.79,2.76-.18,.44-.26,.88-.26,1.32,0,.35,.09,.75,.26,1.18,.17,.44,.53,1.01,1.05,1.71,1.14,1.32,2.43,2.28,3.88,2.9,1.45,.61,3,1.14,4.67,1.58,.44,.09,.88,.13,1.32,.13,.53,0,1.05-.09,1.58-.26,.53-.17,1.1-.74,1.71-1.71,1.75-2.63,3.36-5.31,4.8-8.03,1.45-2.72,2.7-5.61,3.75-8.69,.44-1.23,.79-2.54,1.05-3.95,.26-1.4,.44-2.9,.53-4.48Z"/></g><path class="f" d="M696.26,27.18c-.27,2.55-1.05,4.85-2.37,6.91-1.32,2.06-3.21,3.84-5.66,5.33-.44,.35-1.05,.53-1.84,.53-1.67-.18-2.06-.96-1.18-2.37,.7-1.05,1.36-2.11,1.98-3.16,.61-1.05,1.14-2.19,1.58-3.42,.44-1.05,.83-2.13,1.18-3.23,.35-1.1,.44-2.21,.27-3.36-.09-1.4,.57-2.02,1.97-1.84,1.49,.18,2.54,.57,3.16,1.18,.61,.61,.92,1.76,.92,3.42Zm-13.06,0c-.27,2.55-1.05,4.85-2.37,6.91-1.32,2.06-3.21,3.84-5.66,5.33-.44,.35-1.05,.53-1.84,.53-1.67-.18-2.06-.96-1.18-2.37,.7-1.05,1.36-2.11,1.98-3.16,.61-1.05,1.14-2.19,1.58-3.42,.44-1.05,.83-2.13,1.18-3.23,.35-1.1,.44-2.21,.27-3.36-.09-1.4,.57-2.02,1.97-1.84,1.49,.18,2.54,.57,3.16,1.18,.61,.61,.92,1.76,.92,3.42Z"/></g></g></g></g></g></svg>